<?xml version="1.0" standalone="no"?>
<!DOCTYPE svg PUBLIC "-//W3C//DTD SVG 20010904//EN"
 "http://www.w3.org/TR/2001/REC-SVG-20010904/DTD/svg10.dtd">
<svg version="1.0" xmlns="http://www.w3.org/2000/svg"
 width="512.000000pt" height="512.000000pt" viewBox="0 0 512.000000 512.000000"
 preserveAspectRatio="xMidYMid meet">

<g transform="translate(0.000000,512.000000) scale(0.100000,-0.100000)"
fill="#000000" stroke="none">
<path d="M3613 4774 c-69 -15 -54 12 -1177 -2155 -1003 -1934 -1076 -2079
-1076 -2125 0 -90 48 -138 152 -150 67 -8 116 11 150 57 14 19 507 964 1097
2100 1161 2240 1094 2101 1054 2186 -30 64 -122 103 -200 87z"/>
<path d="M1118 3496 c-27 -14 -907 -721 -1027 -825 -69 -59 -91 -99 -91 -158
1 -89 1 -89 551 -534 283 -228 528 -426 546 -438 71 -52 190 -29 240 48 30 45
31 119 2 170 -14 24 -168 155 -466 395 -244 197 -441 362 -436 366 4 4 207
168 451 364 256 207 448 369 457 386 38 73 9 168 -64 217 -40 27 -120 31 -163
9z"/>
<path d="M3839 3487 c-73 -49 -102 -144 -64 -217 8 -16 202 -180 457 -386 244
-196 447 -360 451 -364 5 -4 -192 -169 -436 -366 -298 -240 -452 -371 -466
-395 -29 -51 -28 -125 2 -170 42 -64 142 -96 209 -66 15 7 267 206 559 442
569 460 568 459 569 548 0 59 -22 99 -91 158 -122 105 -1000 811 -1027 825
-43 22 -123 18 -163 -9z"/>
</g>
</svg>
